<?xml version="1.0" ?><svg data-name="Layer 2" id="Layer_2" viewBox="0 0 32 32" xmlns="http://www.w3.org/2000/svg"><defs><style>.cls-1{fill:#1a1a1a;}</style></defs><title/><path class="cls-1" d="M16,2.5A13.5,13.5,0,1,0,29.5,16,13.52,13.52,0,0,0,16,2.5Zm0,26A12.5,12.5,0,1,1,28.5,16,12.52,12.52,0,0,1,16,28.5Z"/><path class="cls-1" d="M21.61,10.39a.51.51,0,0,0-.71,0L16,15.29l-4.9-4.9a.5.5,0,0,0-.71.71l4.9,4.9-4.9,4.9a.51.51,0,0,0,0,.71.54.54,0,0,0,.36.14.52.52,0,0,0,.35-.14l4.9-4.9,4.9,4.9a.52.52,0,0,0,.71,0,.51.51,0,0,0,0-.71L16.71,16l4.9-4.9A.51.51,0,0,0,21.61,10.39Z"/></svg>